<mxfile host="65bd71144e">
    <diagram name="PÃ¡gina-1" id="bBKZ8OW2WzBzleCHmIlt">
        <mxGraphModel dx="202" dy="787" grid="1" gridSize="10" guides="1" tooltips="1" connect="1" arrows="1" fold="1" page="1" pageScale="1" pageWidth="827" pageHeight="1169" math="0" shadow="0">
            <root>
                <mxCell id="0"/>
                <mxCell id="1" parent="0"/>
                <mxCell id="MXSkEc4uu3Pn45r8Vd0b-1" value="Conta" style="swimlane;fontStyle=1;align=center;verticalAlign=top;childLayout=stackLayout;horizontal=1;startSize=26;horizontalStack=0;resizeParent=1;resizeParentMax=0;resizeLast=0;collapsible=1;marginBottom=0;whiteSpace=wrap;html=1;" parent="1" vertex="1">
                    <mxGeometry x="310" y="170" width="180" height="190" as="geometry"/>
                </mxCell>
                <mxCell id="MXSkEc4uu3Pn45r8Vd0b-2" value="+ numero: number" style="text;strokeColor=none;fillColor=none;align=left;verticalAlign=top;spacingLeft=4;spacingRight=4;overflow=hidden;rotatable=0;points=[[0,0.5],[1,0.5]];portConstraint=eastwest;whiteSpace=wrap;html=1;" parent="MXSkEc4uu3Pn45r8Vd0b-1" vertex="1">
                    <mxGeometry y="26" width="180" height="26" as="geometry"/>
                </mxCell>
                <mxCell id="MXSkEc4uu3Pn45r8Vd0b-5" value="+ saldo: number" style="text;strokeColor=none;fillColor=none;align=left;verticalAlign=top;spacingLeft=4;spacingRight=4;overflow=hidden;rotatable=0;points=[[0,0.5],[1,0.5]];portConstraint=eastwest;whiteSpace=wrap;html=1;" parent="MXSkEc4uu3Pn45r8Vd0b-1" vertex="1">
                    <mxGeometry y="52" width="180" height="26" as="geometry"/>
                </mxCell>
                <mxCell id="MXSkEc4uu3Pn45r8Vd0b-3" value="" style="line;strokeWidth=1;fillColor=none;align=left;verticalAlign=middle;spacingTop=-1;spacingLeft=3;spacingRight=3;rotatable=0;labelPosition=right;points=[];portConstraint=eastwest;strokeColor=inherit;" parent="MXSkEc4uu3Pn45r8Vd0b-1" vertex="1">
                    <mxGeometry y="78" width="180" height="8" as="geometry"/>
                </mxCell>
                <mxCell id="MXSkEc4uu3Pn45r8Vd0b-4" value="+ constructor(numero, saldo):&amp;nbsp;" style="text;strokeColor=none;fillColor=none;align=left;verticalAlign=top;spacingLeft=4;spacingRight=4;overflow=hidden;rotatable=0;points=[[0,0.5],[1,0.5]];portConstraint=eastwest;whiteSpace=wrap;html=1;" parent="MXSkEc4uu3Pn45r8Vd0b-1" vertex="1">
                    <mxGeometry y="86" width="180" height="26" as="geometry"/>
                </mxCell>
                <mxCell id="MXSkEc4uu3Pn45r8Vd0b-6" value="+ sacar(valor): bool&amp;nbsp;" style="text;strokeColor=none;fillColor=none;align=left;verticalAlign=top;spacingLeft=4;spacingRight=4;overflow=hidden;rotatable=0;points=[[0,0.5],[1,0.5]];portConstraint=eastwest;whiteSpace=wrap;html=1;" parent="MXSkEc4uu3Pn45r8Vd0b-1" vertex="1">
                    <mxGeometry y="112" width="180" height="26" as="geometry"/>
                </mxCell>
                <mxCell id="MXSkEc4uu3Pn45r8Vd0b-7" value="+ depositar(valor): bool&amp;nbsp;" style="text;strokeColor=none;fillColor=none;align=left;verticalAlign=top;spacingLeft=4;spacingRight=4;overflow=hidden;rotatable=0;points=[[0,0.5],[1,0.5]];portConstraint=eastwest;whiteSpace=wrap;html=1;" parent="MXSkEc4uu3Pn45r8Vd0b-1" vertex="1">
                    <mxGeometry y="138" width="180" height="26" as="geometry"/>
                </mxCell>
                <mxCell id="MXSkEc4uu3Pn45r8Vd0b-8" value="+ toString(): string&amp;nbsp;" style="text;strokeColor=none;fillColor=none;align=left;verticalAlign=top;spacingLeft=4;spacingRight=4;overflow=hidden;rotatable=0;points=[[0,0.5],[1,0.5]];portConstraint=eastwest;whiteSpace=wrap;html=1;" parent="MXSkEc4uu3Pn45r8Vd0b-1" vertex="1">
                    <mxGeometry y="164" width="180" height="26" as="geometry"/>
                </mxCell>
                <mxCell id="MXSkEc4uu3Pn45r8Vd0b-9" value="ContaCorrente" style="swimlane;fontStyle=1;align=center;verticalAlign=top;childLayout=stackLayout;horizontal=1;startSize=26;horizontalStack=0;resizeParent=1;resizeParentMax=0;resizeLast=0;collapsible=1;marginBottom=0;whiteSpace=wrap;html=1;" parent="1" vertex="1">
                    <mxGeometry x="10" y="450" width="370" height="138" as="geometry"/>
                </mxCell>
                <mxCell id="MXSkEc4uu3Pn45r8Vd0b-10" value="+ limiteChequeEspecial: number" style="text;strokeColor=none;fillColor=none;align=left;verticalAlign=top;spacingLeft=4;spacingRight=4;overflow=hidden;rotatable=0;points=[[0,0.5],[1,0.5]];portConstraint=eastwest;whiteSpace=wrap;html=1;" parent="MXSkEc4uu3Pn45r8Vd0b-9" vertex="1">
                    <mxGeometry y="26" width="370" height="26" as="geometry"/>
                </mxCell>
                <mxCell id="MXSkEc4uu3Pn45r8Vd0b-11" value="" style="line;strokeWidth=1;fillColor=none;align=left;verticalAlign=middle;spacingTop=-1;spacingLeft=3;spacingRight=3;rotatable=0;labelPosition=right;points=[];portConstraint=eastwest;strokeColor=inherit;" parent="MXSkEc4uu3Pn45r8Vd0b-9" vertex="1">
                    <mxGeometry y="52" width="370" height="8" as="geometry"/>
                </mxCell>
                <mxCell id="MXSkEc4uu3Pn45r8Vd0b-12" value="+ constructor(numero, saldo, limiteChequeEspecial):&amp;nbsp;" style="text;strokeColor=none;fillColor=none;align=left;verticalAlign=top;spacingLeft=4;spacingRight=4;overflow=hidden;rotatable=0;points=[[0,0.5],[1,0.5]];portConstraint=eastwest;whiteSpace=wrap;html=1;" parent="MXSkEc4uu3Pn45r8Vd0b-9" vertex="1">
                    <mxGeometry y="60" width="370" height="26" as="geometry"/>
                </mxCell>
                <mxCell id="MXSkEc4uu3Pn45r8Vd0b-14" value="+ sacar(valor):&amp;nbsp;" style="text;strokeColor=none;fillColor=none;align=left;verticalAlign=top;spacingLeft=4;spacingRight=4;overflow=hidden;rotatable=0;points=[[0,0.5],[1,0.5]];portConstraint=eastwest;whiteSpace=wrap;html=1;" parent="MXSkEc4uu3Pn45r8Vd0b-9" vertex="1">
                    <mxGeometry y="86" width="370" height="26" as="geometry"/>
                </mxCell>
                <mxCell id="MXSkEc4uu3Pn45r8Vd0b-13" value="+ toString(): string" style="text;strokeColor=none;fillColor=none;align=left;verticalAlign=top;spacingLeft=4;spacingRight=4;overflow=hidden;rotatable=0;points=[[0,0.5],[1,0.5]];portConstraint=eastwest;whiteSpace=wrap;html=1;" parent="MXSkEc4uu3Pn45r8Vd0b-9" vertex="1">
                    <mxGeometry y="112" width="370" height="26" as="geometry"/>
                </mxCell>
                <mxCell id="MXSkEc4uu3Pn45r8Vd0b-15" value="ContaPoupanca" style="swimlane;fontStyle=1;align=center;verticalAlign=top;childLayout=stackLayout;horizontal=1;startSize=26;horizontalStack=0;resizeParent=1;resizeParentMax=0;resizeLast=0;collapsible=1;marginBottom=0;whiteSpace=wrap;html=1;" parent="1" vertex="1">
                    <mxGeometry x="400" y="450" width="370" height="138" as="geometry"/>
                </mxCell>
                <mxCell id="MXSkEc4uu3Pn45r8Vd0b-16" value="+ taxaRendimento: number" style="text;strokeColor=none;fillColor=none;align=left;verticalAlign=top;spacingLeft=4;spacingRight=4;overflow=hidden;rotatable=0;points=[[0,0.5],[1,0.5]];portConstraint=eastwest;whiteSpace=wrap;html=1;" parent="MXSkEc4uu3Pn45r8Vd0b-15" vertex="1">
                    <mxGeometry y="26" width="370" height="26" as="geometry"/>
                </mxCell>
                <mxCell id="MXSkEc4uu3Pn45r8Vd0b-17" value="" style="line;strokeWidth=1;fillColor=none;align=left;verticalAlign=middle;spacingTop=-1;spacingLeft=3;spacingRight=3;rotatable=0;labelPosition=right;points=[];portConstraint=eastwest;strokeColor=inherit;" parent="MXSkEc4uu3Pn45r8Vd0b-15" vertex="1">
                    <mxGeometry y="52" width="370" height="8" as="geometry"/>
                </mxCell>
                <mxCell id="MXSkEc4uu3Pn45r8Vd0b-18" value="+ constructor(numero, saldo, taxaRendimento):&amp;nbsp;" style="text;strokeColor=none;fillColor=none;align=left;verticalAlign=top;spacingLeft=4;spacingRight=4;overflow=hidden;rotatable=0;points=[[0,0.5],[1,0.5]];portConstraint=eastwest;whiteSpace=wrap;html=1;" parent="MXSkEc4uu3Pn45r8Vd0b-15" vertex="1">
                    <mxGeometry y="60" width="370" height="26" as="geometry"/>
                </mxCell>
                <mxCell id="MXSkEc4uu3Pn45r8Vd0b-19" value="+ aplicarRendimento(valor):&amp;nbsp;" style="text;strokeColor=none;fillColor=none;align=left;verticalAlign=top;spacingLeft=4;spacingRight=4;overflow=hidden;rotatable=0;points=[[0,0.5],[1,0.5]];portConstraint=eastwest;whiteSpace=wrap;html=1;" parent="MXSkEc4uu3Pn45r8Vd0b-15" vertex="1">
                    <mxGeometry y="86" width="370" height="26" as="geometry"/>
                </mxCell>
                <mxCell id="MXSkEc4uu3Pn45r8Vd0b-20" value="+ toString(): string" style="text;strokeColor=none;fillColor=none;align=left;verticalAlign=top;spacingLeft=4;spacingRight=4;overflow=hidden;rotatable=0;points=[[0,0.5],[1,0.5]];portConstraint=eastwest;whiteSpace=wrap;html=1;" parent="MXSkEc4uu3Pn45r8Vd0b-15" vertex="1">
                    <mxGeometry y="112" width="370" height="26" as="geometry"/>
                </mxCell>
                <mxCell id="MXSkEc4uu3Pn45r8Vd0b-28" value="Extends" style="endArrow=block;endSize=16;endFill=0;html=1;rounded=0;exitX=0.5;exitY=0;exitDx=0;exitDy=0;entryX=0.367;entryY=1.038;entryDx=0;entryDy=0;entryPerimeter=0;" parent="1" source="MXSkEc4uu3Pn45r8Vd0b-9" edge="1" target="MXSkEc4uu3Pn45r8Vd0b-8">
                    <mxGeometry width="160" relative="1" as="geometry">
                        <mxPoint x="310" y="390" as="sourcePoint"/>
                        <mxPoint x="380.02" y="390.004" as="targetPoint"/>
                    </mxGeometry>
                </mxCell>
                <mxCell id="MXSkEc4uu3Pn45r8Vd0b-29" value="Extends" style="endArrow=block;endSize=16;endFill=0;html=1;rounded=0;exitX=0.5;exitY=0;exitDx=0;exitDy=0;entryX=0.506;entryY=1.038;entryDx=0;entryDy=0;entryPerimeter=0;" parent="1" source="MXSkEc4uu3Pn45r8Vd0b-15" edge="1" target="MXSkEc4uu3Pn45r8Vd0b-8">
                    <mxGeometry width="160" relative="1" as="geometry">
                        <mxPoint x="482.5" y="440" as="sourcePoint"/>
                        <mxPoint x="398.91999999999996" y="386.98800000000006" as="targetPoint"/>
                    </mxGeometry>
                </mxCell>
            </root>
        </mxGraphModel>
    </diagram>
</mxfile>